The Man from Nowhere (Ajeossi) (2010) HQ AC3 DD5.1 (Externe Nl Subs) TBS




Zuid-Korea
Actie / Misdaad
119 minuten

geregisseerd door Jeong-beom Lee
met Bin Won, Se-Ron Kim en Hyo-Seo Kim

Tae-sik Cha, gewoonlijk "Ajusshi" (mister) genoemd in zijn buurt, runt een vervallen lommerd in een achterbuurt. 
Niemand weet veel van hem af en hijzelf bemoeit zich met geen mens, 
behalve So-mi, het dochtertje van junkiemoeder Hyo-jeong. Als deze een man over de vloer heeft, 
komt So-mi naar Tae-sik en besteedt daar haar tijd. 
Op een dag levert Hyo-jeong een pakje bij Tae-sik in met de vraag dit voor hem te bewaren. 
Dit is het begin van een hoop ellende voor Tae-sik.

Storyline

An ex-special agent CHA Tae-shik's only connection to the rest of the world is a little girl, So-mi, who lives nearby. H
er mother, Hyo-jeong smuggles drugs from a drug trafficking organization and entrusts Tae-shik with the product, 
without letting him know. The traffickers find out about her smuggling and kidnap both Hyo-jeong and So-mi. 
The gang promises to release them if Tae-shik makes a delivery for them, 
however it actually is a larger plot to eliminate a rival drug ring leader. When Hyo-jeon's disemboweled body is discovered, 
Tae-shik realizes that So-mi's life may also be in danger. 
Tae-shik becomes enraged at the prospect that So-mi may already be dead and prepares for a battle, 
putting his own life at risk.






NFO

SOURCE..........: DVD5 NTSC
SIZE............: 1.45GB
FORM............: AVI
VIDEO CODEC.....: XVID 
BITRATE.........: 1749 Kbit/s
WIDTH & HEIGHT..: 720 X 320
FRAMES/S........: 23.976 Fps
AUDIO...........: Korean
AUDIO CODE......: AC3
BITRATE.........: 448kbps
CHANNELS........: 5
SAMPLING........: 48.0 kHz
Subtitles.......: Dutch Selectable
Cover en label..: Yes meegepost.
Category........: Video 
Format..........: DivX 
Source..........: Retail  
Subtitle........: Dutch subs extern

General
Complete name                    : The Man From Nowhere-2010.avi
Format                           : DivX
Format/Info                      : Hack of AVI
File size                        : 1.46 GiB
Duration                         : 1h 59mn
Overall bit rate                 : 1 750 Kbps

Video
ID                               : 0
Format                           : MPEG-4 Visual
Format profile                   : Advanced Simple@L5
Format settings, BVOP            : 1
Format settings, QPel            : No
Format settings, GMC             : No warppoints
Format settings, Matrix          : Default (H.263)
Muxing mode                      : Packed bitstream
Codec ID                         : DX50
Codec ID/Hint                    : DivX 5
Duration                         : 1h 59mn
Bit rate                         : 1 292 Kbps
Width                            : 720 pixels
Height                           : 320 pixels
Display aspect ratio             : 2.25:1
Frame rate                       : 23.976 fps
Color space                      : YUV
Chroma subsampling               : 4:2:0
Bit depth                        : 8 bits
Scan type                        : Progressive
Compression mode                 : Lossy
Bits/(Pixel*Frame)               : 0.234
Stream size                      : 1.08 GiB (74%)
Title                            : Video 
Writing library                  : XviD 62

Audio
ID                               : 1
Format                           : AC-3
Format/Info                      : Audio Coding 3
Mode extension                   : CM (complete main)
Codec ID                         : 2000
Duration                         : 1h 59mn
Bit rate mode                    : Constant
Bit rate                         : 448 Kbps
Channel(s)                       : 6 channels
Channel positions                : Front: L C R, Side: L R, LFE
Sampling rate                    : 48.0 KHz
Bit depth                        : 16 bits
Compression mode                 : Lossy
Stream size                      : 382 MiB (26%)
Alignment                        : Split accross interleaves
Interleave, duration             : 42 ms (1.00 video frame)
Interleave, preload duration     : 500 ms
Title                            : Audio 
  

 
 
http://www.moviemeter.nl/film/69054 
http://www.imdb.com/title/tt1527788